<svg xmlns="http://www.w3.org/2000/svg" width="24" height="24" fill="none" viewBox="0 0 24 24" id="skip-next">
  <path fill="url(#paint0_linear_2535_6988)" d="M16.6598 14.6474C18.4467 13.4935 18.4467 10.5065 16.6598 9.35258L5.87083 2.38548C4.13419 1.26402 2 2.72368 2 5.0329V18.9671C2 21.2763 4.13419 22.736 5.87083 21.6145L16.6598 14.6474Z"></path>
  <path fill="url(#paint1_linear_2535_6988)" d="M22.75 5C22.75 4.58579 22.4142 4.25 22 4.25C21.5858 4.25 21.25 4.58579 21.25 5V19C21.25 19.4142 21.5858 19.75 22 19.75C22.4142 19.75 22.75 19.4142 22.75 19V5Z"></path>
  <defs>
    <linearGradient id="paint0_linear_2535_6988" x1="12.375" x2="12.375" y1="2" y2="22" gradientUnits="userSpaceOnUse">
      <stop stop-color="#3859ec"></stop>
      <stop offset="1" stop-color="#00eeff"></stop>
    </linearGradient>
    <linearGradient id="paint1_linear_2535_6988" x1="12.375" x2="12.375" y1="2" y2="22" gradientUnits="userSpaceOnUse">
      <stop stop-color="#3859ec"></stop>
      <stop offset="1" stop-color="#00eeff"></stop>
    </linearGradient>
  </defs>
</svg>
